<svg xmlns="http://www.w3.org/2000/svg" width="24.0d" height="24.0d" viewBox="0 0 24.0 24.0"><path fill="#1c4e7b" d="m20,4L4,4c-1.1,0 -2,0.9 -2,2v12c0,1.1 0.9,2 2,2h16c1.1,0 2,-0.9 2,-2L22,6c0,-1.1 -0.9,-2 -2,-2ZM20.5,18c0,0.28 -0.22,0.5 -0.5,0.5L4,18.5c-0.28,0 -0.5,-0.22 -0.5,-0.5L3.5,6c0,-0.28 0.22,-0.5 0.5,-0.5h16c0.28,0 0.5,0.22 0.5,0.5v12ZM13.75,16.63c0,0.41 -0.34,0.75 -0.75,0.75s-0.75,-0.34 -0.75,-0.75c0,-1.28 -1,-2.28 -2.28,-2.28h-1.8c-1.28,0 -2.28,1 -2.28,2.28 0,0.41 -0.34,0.75 -0.75,0.75s-0.75,-0.34 -0.75,-0.75c0,-2.12 1.66,-3.78 3.78,-3.78h1.8c2.12,0 3.78,1.66 3.78,3.78ZM9.07,12.21c1.33,0 2.42,-1.08 2.42,-2.42s-1.08,-2.42 -2.42,-2.42 -2.42,1.08 -2.42,2.42 1.08,2.42 2.42,2.42ZM9.07,8.88c0.5,0 0.92,0.41 0.92,0.92s-0.41,0.92 -0.92,0.92 -0.92,-0.41 -0.92,-0.92 0.41,-0.92 0.92,-0.92ZM19,9.01c0,0.41 -0.34,0.75 -0.75,0.75h-3.72c-0.41,0 -0.75,-0.34 -0.75,-0.75s0.34,-0.75 0.75,-0.75h3.72c0.41,0 0.75,0.34 0.75,0.75ZM17.66,11.51c0,0.41 -0.34,0.75 -0.75,0.75h-2.38c-0.41,0 -0.75,-0.34 -0.75,-0.75s0.34,-0.75 0.75,-0.75h2.38c0.41,0 0.75,0.34 0.75,0.75Z"></path></svg>