<?xml version="1.0" standalone="no"?>
<!DOCTYPE svg PUBLIC "-//W3C//DTD SVG 20010904//EN"
 "http://www.w3.org/TR/2001/REC-SVG-20010904/DTD/svg10.dtd">
<svg version="1.0" xmlns="http://www.w3.org/2000/svg"
 width="158.000000pt" height="150.000000pt" viewBox="0 0 158.000000 150.000000"
 preserveAspectRatio="xMidYMid meet">

<g transform="translate(0.000000,150.000000) scale(0.100000,-0.100000)"
fill="#000000" stroke="none">
<path d="M190 933 c-51 -9 -90 -25 -99 -42 -21 -39 -33 -188 -22 -277 13 -102
28 -130 78 -143 101 -26 319 -20 375 10 17 9 31 48 43 127 l7 42 -86 0 -85 0
-6 -47 c-3 -27 -7 -55 -8 -63 -2 -16 -81 -26 -124 -15 l-23 6 2 167 3 167 73
3 72 3 0 -40 c0 -22 4 -51 10 -66 10 -25 12 -26 87 -23 l78 3 -3 50 c-2 28
-11 66 -20 85 -15 31 -24 36 -72 47 -53 11 -228 15 -280 6z"/>
<path d="M800 934 c-61 -12 -88 -26 -100 -52 -28 -62 -29 -319 0 -372 16 -30
39 -38 139 -51 103 -13 259 1 298 26 30 20 38 67 38 225 -1 210 -12 221 -219
226 -72 1 -142 0 -156 -2z m204 -95 c10 -50 7 -265 -4 -293 -9 -24 -14 -26
-68 -26 -32 0 -63 5 -70 12 -13 13 -18 291 -6 322 5 12 21 16 74 16 l68 0 6
-31z"/>
<path d="M1306 915 c-10 -28 -7 -415 4 -436 9 -16 22 -19 79 -19 46 0 72 5 80
14 8 9 11 79 9 232 l-3 219 -81 3 c-68 2 -83 0 -88 -13z"/>
</g>
</svg>
