<svg xmlns="http://www.w3.org/2000/svg" width="24" height="24" viewBox="0 0 24 24">
  <path fill="#003c94" d="M17.99 18.66c-.4.23-.79.28-1.19.28-.28 0-.57-.06-.85-.17l-10.5-3.8v4.43c0 .97.74 1.7 1.7 1.7h11.3c.85 0 1.53-.68 1.53-1.53v-4.26l-.68 1.93c-.28.57-.74 1.14-1.31 1.42Z"/>
  <path fill="#003c94" d="M19.92 7.36 8 2.99c-.91-.28-1.93.17-2.21 1.08L3.12 11.28c-.34.91.11 1.87 1.02 2.21l11.92 4.37c.91.34 1.87-.11 2.21-1.02l2.61-7.21c.34-.97-.11-1.93-.97-2.27ZM14.24 12.81c-.11.28-.4.57-.68.45-.68-.23-1.08-.34-1.25-.45l-5-1.82c-.34-.11-.57-.51-.45-.91.11-.34.51-.57.91-.45l6.02 2.21c.4.17.57.57.45.97Zm3.75-1.7c-.11.28-.4.45-.68.45-.34 0-1.02-.34-1.19-.4l-7.78-2.84c-.34-.11-.57-.51-.45-.91.11-.34.51-.57.91-.45l8.74 3.18c.4.17.57.62.45.97Z"/>
</svg>
