<svg width="24" height="24" viewBox="0 0 24 24" xmlns="http://www.w3.org/2000/svg">
  <path fill="#295988" d="M19.37 16.32H4.63c-.36 0-.54.44-.28.69 1.17 1.12 3.79 3.11 7.65 3.18 3.86-.06 6.48-2.06 7.65-3.18.26-.25.08-.69-.28-.69z"/>
  <path fill="#295988" d="M12.22 9.94c-.06-.03-.14-.06-.22-.06s-.17.03-.23.06c-.42.19-1.33.59-1.54.7-.14.07-.19.17-.19.32.05.67.29 2.66 1.75 3.37.07.03.14.05.2.04.06 0 .13-.01.2-.04 1.46-.7 1.71-2.7 1.75-3.37 0-.14-.05-.25-.19-.32h0c-.22-.11-1.12-.51-1.54-.7z"/>
  <path fill="#295988" d="M20.7 8.86c-3.62-1.25-5.81-3.13-7.15-4.42-.87-.84-2.24-.84-3.11 0-1.34 1.29-3.52 3.17-7.15 4.42-.72.25-.11 1.9 1.34 2.91h0c1.3-.39 2.69-.68 4.13-.85.18-.02.31-.19.28-.38-.07-.42-.11-.37-.12-.61-.01-.22.08-.39.29-.5.34-.17 1.77-.81 2.43-1.1.09-.04.23-.1.35-.09.13 0 .26.05.35.09.67.29 2.09.93 2.43 1.1h0c.22.11.31.27.29.5-.02.24-.05.19-.12.61-.03.18.1.35.28.37 1.39.16 2.72.44 3.98.81.1.03.2.01.29-.05 1.35-1.02 1.9-2.58 1.2-2.82z"/>
  <path fill="#295988" d="M14.7 14.8h4.14c.2 0 .37-.17.37-.37v-1.21c0-.12-.08-.24-.2-.27-.98-.28-2.02-.48-3.1-.62-.33-.04-.65.16-.76.48-.17.48-.41.97-.74 1.41-.18.24 0 .58.3.58z"/>
  <path fill="#295988" d="M8.09 12.33c-1.07.14-2.11.35-3.1.62-.12.03-.2.14-.2.27v1.21c0 .2.17.37.37.37h4.13c.3 0 .48-.34.3-.58-.32-.43-.56-.92-.74-1.41-.11-.32-.43-.52-.76-.48z"/>
</svg>
